# xmcd
#
# Track frame offsets: 
#        150
#        18487
#        36657
#        56737
#        78182
#        99517
#        121757
#        142062
#        160310
#        179655
#        204237
#        223320
#
# Disc length: 3242 seconds
#
# Revision: 3
# Processed by: cddbd v1.5PL3 Copyright (c) Steve Scherf et al.
# Submitted via: ExactAudioCopy v0.95a4
#
DISCID=b00ca80c
DTITLE=Boyz II Men - The Remix Collection
DYEAR=1995
DGENRE=R&B
TTITLE0=Under Preassure (Dallas Austin Mix)
TTITLE1=Vibin' (The New Flava) (feat. Busta Rhymes, Craig Mack, Method
TTITLE1=Man and Treach)
TTITLE2=I Remember
TTITLE3=Water Runs Dry (Strat Mix)
TTITLE4=U Know (Dallas Austin Mix)
TTITLE5=I'll Make Love To You (Make Love To You Version)
TTITLE6=Uhh Ahh (Dedication Mix)
TTITLE7=Motownphilly (Quiet Storm Version)
TTITLE8=On Bended Knee (Human Rhythm Mix)
TTITLE9=Brokenhearted (Acoustic Remix) (feat. Brandy)
TTITLE10=Thank You (Moog Flava)
TTITLE11=Sympin' (Dallas Austin Mix)
EXTD=
EXTT0=Countdown, Dallas Austin Mix,\nSympin' Interlude\n
EXTT1=The New Flava\nFeaturing Treach, Craig Mack, \nBusta Rhymes, Met
EXTT1=hod Man.
EXTT2=Motownophilly Interlude\n
EXTT3=Strat Mix
EXTT4=Dalla Austin Mix
EXTT5=Make Love To You Version\nMotownphilly Interlude
EXTT6=Dedication Mix
EXTT7=Quiet Storm Version\n
EXTT8=Human Rhythm Mix
EXTT9=Accoustic Remix
EXTT10=Moog Flava
EXTT11=Dallas Austin Mix
PLAYORDER=
